<svg width="15" height="16" fill="none" xmlns="http://www.w3.org/2000/svg"><path d="M3.395 3.733a4.123 4.123 0 0 1 8.21 0l.239 2.517a6.904 6.904 0 0 0 1.04 3.04l.655 1.035c.424.67.636 1.004.644 1.279a1 1 0 0 1-.489.887c-.236.14-.632.14-1.424.14H2.73c-.792 0-1.188 0-1.424-.14a1 1 0 0 1-.489-.887c.008-.275.22-.61.644-1.279l.655-1.034a6.903 6.903 0 0 0 1.04-3.041l.24-2.517Z" fill="url('#paint0_linear_10_163')"/><path d="M6.051 14.707c.086.084.274.159.536.211.262.053.583.082.913.082.33 0 .651-.029.913-.082.262-.052.45-.127.536-.21" stroke="#01A3BD" stroke-width="2" stroke-linecap="round"/><defs><linearGradient id="paint0_linear_10_163" x1="15.283" y1="6.316" x2="-.566" y2="6.316" gradientUnits="userSpaceOnUse"><stop stop-color="#067BFF"/><stop offset="1" stop-color="#01A3BD"/></linearGradient></defs></svg>