<svg width="17" height="15" fill="none" xmlns="http://www.w3.org/2000/svg"><path d="M16.839 5.438c-.058.328-.099.66-.178.983-.208.855-.625 1.61-1.147 2.308-.805 1.079-1.783 1.99-2.793 2.87-1.19 1.035-2.388 2.064-3.584 3.093-.46.396-.954.414-1.396.03-1.56-1.354-3.125-2.703-4.667-4.078a11.762 11.762 0 0 1-2.059-2.36C.473 7.449.111 6.55.025 5.55.02 5.512.007 5.476 0 5.439v-.757c.01-.053.023-.105.028-.159.093-.957.39-1.842.964-2.618C1.802.807 2.89.172 4.252.04c1.535-.15 2.784.42 3.8 1.55.126.14.243.29.357.425.25-.27.474-.55.735-.789 1.28-1.177 2.776-1.511 4.418-.98 1.688.547 2.673 1.779 3.11 3.47.08.316.112.644.167.967v.757Zm-8.425 8.566c.04-.03.066-.05.09-.07 1.24-1.071 2.486-2.137 3.72-3.214.885-.771 1.738-1.577 2.451-2.516.564-.742 1.002-1.544 1.124-2.484.166-1.274-.092-2.442-.921-3.451-1.21-1.474-3.681-1.86-5.25-.128-.26.287-.473.615-.708.924a.611.611 0 0 1-.998.003c-.069-.09-.128-.19-.192-.286a4.611 4.611 0 0 0-1.05-1.124C5.146.497 2.86.906 1.777 2.514.739 4.054.73 5.676 1.58 7.305c.44.845 1.057 1.564 1.748 2.207 1.014.945 2.057 1.86 3.095 2.778.653.577 1.32 1.137 1.99 1.715Z" fill="#fff"/></svg>