<svg width="17" height="17" fill="none" xmlns="http://www.w3.org/2000/svg"><path d="M5.167 12.667a3.333 3.333 0 0 0 6.667 0" stroke="#01A3BD" stroke-width="2" stroke-linecap="round"/><path d="M3.873 5.141a4.655 4.655 0 0 1 9.254 0l.21 1.889a6.78 6.78 0 0 0 .924 2.739l.482.802c.303.505.454.757.482.96a1 1 0 0 1-.597 1.055c-.189.08-.483.08-1.072.08H3.444c-.589 0-.883 0-1.072-.08a1 1 0 0 1-.597-1.055c.028-.203.18-.455.482-.96l.482-.802c.501-.836.817-1.77.924-2.74l.21-1.888Z" stroke="url('#paint0_linear_10_196')" stroke-width="2"/><defs><linearGradient id="paint0_linear_10_196" x1="16.283" y1="6.833" x2=".434" y2="6.833" gradientUnits="userSpaceOnUse"><stop stop-color="#067BFF"/><stop offset="1" stop-color="#01A3BD"/></linearGradient></defs></svg>