<svg width="270" height="30" fill="none" xmlns="http://www.w3.org/2000/svg"><path d="M40 5a5 5 0 0 1 5-5h20a5 5 0 0 1 5 5v20a5 5 0 0 1-5 5H45a5 5 0 0 1-5-5V5Z" fill="#fff"/><rect x="80" width="30" height="30" rx="5" fill="#fff"/><rect x="160" width="30" height="30" rx="5" fill="#fff"/><rect x="120" width="30" height="30" rx="5" fill="#fff"/><rect x="200" width="30" height="30" rx="5" fill="#fff"/><rect x="240" width="30" height="30" rx="5" fill="#fff"/><path d="M0 5a5 5 0 0 1 5-5h20a5 5 0 0 1 5 5v20a5 5 0 0 1-5 5H5a5 5 0 0 1-5-5V5Z" fill="#fff"/><g clip-path="url('#clip0_33_21')" fill="#000"><path d="M15.54 5c-.016.007-.032.017-.049.022a2.51 2.51 0 0 0-.787.44l-.022.011.004.014c.022.008.044.017.067.023.336.093.67.194.986.343.123.058.254.066.382.096.429.098.845.235 1.242.425.04.02.058.017.07-.03.035-.14.062-.28.043-.425l-.002-.039.011-.007c.078.086.158.17.231.26.18.219.326.46.452.713a.25.25 0 0 0 .06.077c.395.331.706.727.928 1.193l.029.066a1.394 1.394 0 0 0-.577-.254c-.064-.015-.07-.009-.056.057.093.442.148.888.157 1.34.004.176.035.352.05.528l.057.795c0 .016.003.033.006.062.25-.11.459-.259.612-.48l.013.005c-.02.09-.037.18-.061.27-.113.42-.301.804-.558 1.156-.027.037-.03.092-.038.14a2.936 2.936 0 0 1-.21.796c-.023.05-.05.098-.078.156-.016-.02-.026-.035-.036-.049a1.347 1.347 0 0 0-.32-.321c-.023-.017-.04-.023-.067-.005a3.929 3.929 0 0 1-1.259.577l-.018.005v.194c.002.212-.012.424-.051.633-.01.052-.006.056.045.045.4-.086.779-.224 1.128-.443-.11.209-1.014.792-1.567 1.011a4.686 4.686 0 0 1-1.83.339 2.52 2.52 0 0 0 .703-.292c.016-.01.027-.025.041-.038-.014-.011-.026-.025-.041-.033a4.832 4.832 0 0 1-.612-.417.15.15 0 0 0-.086-.028c-.322.002-.644.008-.966.011-.045 0-.066.009-.057.059.03.163.053.329.087.492.012.06.045.116.072.185-.09-.032-.175-.058-.257-.093a2.264 2.264 0 0 1-.81-.601.496.496 0 0 0-.3-.168 3.176 3.176 0 0 1-.992-.349c-.108-.062-.208-.139-.31-.21-.028-.02-.051-.047-.086-.08.074.01.133.019.193.024.276.024.538-.037.795-.126.044-.015.02-.04.009-.063-.155-.314-.319-.624-.462-.943a.708.708 0 0 0-.278-.332c-.218-.14-.422-.3-.631-.452-.015-.01-.03-.022-.052-.039a2.42 2.42 0 0 0-.201.408c-.053.14-.097.283-.147.428-.007-.017-.016-.034-.023-.053a3.146 3.146 0 0 1-.2-1.242.243.243 0 0 0-.056-.169 1.547 1.547 0 0 1-.248-.449c-.012-.034-.005-.056.02-.078.111-.095.24-.158.374-.21a.108.108 0 0 0 .073-.08c.112-.367.263-.72.461-1.05.008-.014.013-.039.006-.052-.101-.194-.205-.386-.308-.579l-.016-.022c-.211.26-.399.528-.547.824.21-1.215.835-2.179 1.776-2.955-.086.14-.176.277-.255.42-.08.143-.148.293-.221.44l.013.011.051-.008c.183-.032.365-.066.548-.096a.188.188 0 0 0 .12-.06 5.65 5.65 0 0 1 .918-.81c.06-.042.063-.048.02-.107-.074-.105-.153-.207-.23-.31-.014-.02-.03-.038-.054-.069.131-.02.25-.043.37-.056.299-.034.597-.038.896-.014a.153.153 0 0 0 .064-.01c.45-.168.915-.266 1.396-.29.014-.001.029-.006.043-.008h.411Zm-.1 8.974.001-.022c.128 0 .257.004.385-.002a.202.202 0 0 0 .12-.05c.108-.103.214-.207.312-.319.432-.494.806-1.03 1.146-1.59.043-.07.043-.07-.022-.12a6.994 6.994 0 0 1-.941-.89.135.135 0 0 0-.066-.04l-1.687-.427c-.103-.026-.137-.017-.19.076-.247.425-.491.853-.736 1.28a.166.166 0 0 0-.017.051c-.045.236-.094.47-.135.707-.036.207-.063.416-.094.624-.009.065.006.12.07.151l.97.477c.02.01.044.018.067.02l.817.074Zm-4.843-5.205c.002.193.047.527.095.861.008.053.02.06.081.049.386-.07.774-.127 1.167-.147.014-.001.03-.006.043-.011.442-.178.884-.357 1.327-.534.065-.026.099-.068.102-.138.006-.112.014-.223.022-.335.03-.396.082-.79.175-1.177a.11.11 0 0 0-.026-.107 6.854 6.854 0 0 1-.598-.84c-.046-.078-.088-.095-.176-.067-.201.065-.403.129-.603.2-.215.077-.436.148-.616.293-.267.215-.526.438-.785.662a.253.253 0 0 0-.075.127c-.079.335-.136.674-.134 1.165Zm6.904 2.193c.085-.005.252-.018.418-.027.049-.003.076-.025.096-.067.235-.488.451-.985.641-1.493a.09.09 0 0 0-.002-.065 10.221 10.221 0 0 0-.855-1.405.113.113 0 0 0-.079-.039c-.071 0-.144.003-.214.015-.372.064-.743.13-1.113.2a.165.165 0 0 0-.086.051c-.366.424-.707.867-1.034 1.321-.048.067-.046.11.008.175.36.434.756.834 1.154 1.232a.1.1 0 0 0 .052.024c.31.05.62.072 1.015.078Zm-2.11-5.032-.002-.006c-.332.029-.665.053-.998.088-.247.026-.205-.016-.338.23-.169.315-.267.654-.346 1a.097.097 0 0 0 .011.06c.208.395.432.78.683 1.149.069.1.095.107.21.072.473-.144.947-.288 1.421-.43.09-.028.193-.034.27-.081.08-.048.138-.135.204-.206.2-.217.39-.444.553-.692.036-.054.035-.082-.005-.125a7.278 7.278 0 0 0-1.2-1.036.135.135 0 0 0-.068-.022c-.133-.002-.264-.001-.397-.001h.001Zm-2.836 6.816c.027-.012.053-.018.075-.032a5.721 5.721 0 0 0 1.016-.825.083.083 0 0 0 .02-.06c-.01-.07-.023-.138-.036-.207-.087-.46-.161-.92-.196-1.387-.006-.07-.039-.11-.105-.135-.443-.158-.885-.32-1.327-.479a.067.067 0 0 0-.052.006c-.373.283-.712.601-1.009.963-.018.023-.018.064-.02.096 0 .02.011.042.018.062.11.363.238.719.424 1.051a.246.246 0 0 0 .045.06c.336.31.7.588 1.073.853.02.015.047.021.074.033ZM4 20.634c.021-.084.035-.17.065-.25.145-.392.433-.621.834-.71a1.67 1.67 0 0 1 .832.036c.033.01.048.024.049.06.005.201.014.401.02.601 0 .006 0 .012-.003.026l-.033-.036c-.088-.107-.175-.214-.261-.323-.027-.033-.055-.058-.099-.06-.104-.003-.21-.022-.313-.009a.535.535 0 0 0-.438.342c-.142.33-.121.652.087.95.18.259.447.35.757.27.14-.037.269-.097.394-.19-.007.092-.02.176-.019.26.002.085-.042.125-.11.162-.432.239-1 .197-1.371-.107a1.08 1.08 0 0 1-.381-.684c-.002-.013-.007-.025-.01-.038v-.3ZM12.572 21.131l.171-.474.323-.898c.013-.036.03-.047.068-.047.232.002.464.001.71.001-.04.055-.072.104-.11.15a.139.139 0 0 0-.03.106c.03.394.06.789.088 1.183.011.148.02.297.034.445.003.028.018.06.035.082.043.054.091.102.144.16h-.91c.062-.058.117-.11.174-.16a.088.088 0 0 0 .034-.082l-.09-1.249c0-.004-.002-.008-.006-.02l-.023.056c-.17.47-.339.94-.507 1.411-.013.038-.03.052-.07.05a2.075 2.075 0 0 0-.22 0c-.046.003-.067-.011-.084-.055-.18-.463-.362-.925-.544-1.388l-.02-.048h-.017c0 .073.002.145 0 .217-.009.346-.02.691-.027 1.037 0 .02.01.045.023.06.05.056.103.11.163.17h-.75c.058-.059.11-.112.16-.168a.115.115 0 0 0 .028-.064l.088-1.63c.003-.043-.003-.077-.034-.11-.04-.045-.077-.095-.121-.15l.05-.003c.224 0 .448 0 .671-.002.038 0 .052.014.064.046.17.44.342.88.513 1.319l.022.054v.001ZM7.588 19.715h.866c-.041.05-.075.098-.116.14a.172.172 0 0 0-.047.13c.002.535.001 1.07 0 1.603 0 .04.01.07.036.099.043.046.081.097.127.152H7.59c.047-.058.09-.106.127-.159a.158.158 0 0 0 .03-.084c.002-.216.002-.431.001-.646l-.002-.052h-.762v.056c0 .214-.001.427.001.641 0 .029.014.061.03.085.038.053.08.102.127.159h-.866c.05-.06.095-.11.135-.165a.13.13 0 0 0 .026-.071V19.95a.13.13 0 0 0-.027-.07c-.04-.055-.085-.106-.133-.165h.866c-.047.058-.09.11-.132.164-.012.015-.025.034-.026.052v.62h.76c.002-.015.004-.03.004-.044 0-.185 0-.37-.002-.556a.13.13 0 0 0-.025-.071c-.04-.055-.085-.106-.133-.166v.002ZM20.218 20.785c0 .588-.384 1.035-.96 1.12a1.088 1.088 0 0 1-1.25-.898c-.065-.348-.015-.675.212-.956.26-.32.606-.444 1.01-.404.597.06.986.552.988 1.138Zm-.564.13c-.018-.12-.029-.241-.055-.36a.869.869 0 0 0-.226-.444c-.19-.192-.598-.213-.752.146a.87.87 0 0 0-.034.095c-.06.208-.039.416.01.623.04.173.103.336.231.465.23.23.583.175.731-.115a.998.998 0 0 0 .095-.409ZM21.363 21.84h-.718c.048-.058.092-.108.131-.162a.144.144 0 0 0 .029-.075V19.95a.119.119 0 0 0-.024-.067c-.041-.055-.086-.106-.135-.165.02-.002.031-.005.043-.005l.697-.001c.035 0 .05.016.066.04l.796 1.221.036.054c.003-.02.006-.033.006-.044 0-.344 0-.689-.002-1.032a.108.108 0 0 0-.03-.068c-.054-.055-.113-.107-.178-.167h.717c-.046.056-.086.106-.128.154a.132.132 0 0 0-.034.095v1.879c-.099 0-.192-.007-.284.002-.09.008-.14-.024-.188-.099-.32-.483-.644-.963-.968-1.444a7.568 7.568 0 0 0-.04-.06c-.003.032-.004.049-.004.066v1.288c0 .035.008.059.035.082.058.05.113.103.177.162v-.001ZM16.281 23.45c-.009-.015-.015-.033-.027-.046-.09-.098-.18-.196-.273-.294a.114.114 0 0 0-.047-.033.967.967 0 0 0-.53-.012c-.228.067-.354.236-.412.456a1.12 1.12 0 0 0 .089.817c.08.156.193.278.376.308.14.023.27-.007.38-.1a.109.109 0 0 0 .033-.071 5.694 5.694 0 0 0 0-.326.093.093 0 0 0-.026-.059c-.058-.057-.12-.11-.188-.172h.905c-.035.04-.06.078-.094.107-.063.056-.08.122-.077.204.005.237.002.474.002.711V25l-.274-.23c-.114.08-.235.142-.369.177-.21.055-.422.07-.633.01a.931.931 0 0 1-.626-.555 1.285 1.285 0 0 1-.019-1 .977.977 0 0 1 .546-.565 1.539 1.539 0 0 1 1.212-.001c.038.015.052.034.053.077.002.151.01.303.015.455v.068l-.018.014h.002ZM23.29 21.147l.042.052c.079.097.16.193.236.293.03.04.067.061.114.072.193.041.386.061.58.012a.48.48 0 0 0 .134-.055c.138-.086.15-.274.014-.364-.087-.058-.19-.095-.29-.13-.136-.05-.278-.083-.414-.134a1.245 1.245 0 0 1-.239-.124c-.343-.222-.29-.712-.03-.914a.993.993 0 0 1 .464-.19c.317-.05.629-.031.934.074.036.013.048.03.049.067.006.18.014.36.023.55-.016-.012-.026-.018-.034-.027-.073-.078-.15-.153-.217-.236a.306.306 0 0 0-.206-.116 1.2 1.2 0 0 0-.482.005.45.45 0 0 0-.11.045c-.141.082-.147.279-.005.358.093.052.199.082.301.117.155.053.313.095.466.152.082.03.16.076.23.128.129.093.191.227.194.384.006.334-.137.538-.458.66-.222.084-.452.1-.686.086a1.787 1.787 0 0 1-.557-.114c-.032-.013-.044-.03-.044-.065-.006-.194-.014-.387-.022-.58l.012-.006ZM15.33 21.84h-.934c.043-.053.08-.101.12-.145a.155.155 0 0 0 .042-.117c-.001-.54 0-1.079-.002-1.618a.155.155 0 0 0-.03-.084c-.039-.054-.083-.103-.132-.164h1.012c.155 0 .307.017.454.068.352.123.473.41.436.723-.04.338-.276.566-.618.611a1.815 1.815 0 0 1-.534-.015l-.038-.005-.003.05v.452c-.001.035.01.058.037.08.062.05.12.104.19.163Zm-.219-1.826-.003.015-.003.004c0 .249-.002.497 0 .746 0 .013.021.035.034.036.093.009.187.024.279.016.189-.015.302-.128.33-.312a.697.697 0 0 0 .003-.13c-.009-.18-.11-.31-.287-.344-.115-.022-.235-.022-.352-.031ZM16.929 22.791h.889c-.055.06-.105.11-.15.165a.136.136 0 0 0-.03.079c-.002.382-.002.765 0 1.147 0 .06.004.12.016.179.032.157.117.241.276.261.1.012.204.016.303.002.196-.026.292-.14.305-.337.003-.055.004-.11.004-.165 0-.363 0-.725-.002-1.087a.137.137 0 0 0-.03-.079c-.044-.054-.093-.104-.146-.162h.682c-.045.057-.089.107-.127.16a.15.15 0 0 0-.029.08c-.002.393 0 .786-.002 1.178 0 .091-.009.184-.027.273a.564.564 0 0 1-.458.467 1.711 1.711 0 0 1-.828-.01.596.596 0 0 1-.47-.546 1.795 1.795 0 0 1-.012-.21v-1.132c0-.044-.01-.08-.04-.112-.042-.045-.079-.095-.124-.15ZM9.862 24.918c.051-.063.097-.115.14-.17a.11.11 0 0 0 .022-.063v-1.658A.12.12 0 0 0 10 22.96c-.042-.056-.088-.108-.138-.168h1.736l.026.545-.01.006-.066-.068c-.055-.058-.1-.14-.168-.168-.07-.03-.16-.01-.242-.01H10.573v.558l.049.002c.135 0 .27.002.405 0a.135.135 0 0 0 .076-.029c.059-.045.114-.095.178-.15v.666c-.057-.049-.11-.09-.159-.136a.152.152 0 0 0-.116-.043c-.126.003-.25.001-.376.001h-.057v.642c.017 0 .034.003.052.003.247 0 .494 0 .742-.002a.11.11 0 0 0 .071-.031c.09-.096.177-.195.277-.291l-.043.63h-1.81ZM20.167 24.61h.045c.249 0 .498 0 .747.002a.093.093 0 0 0 .077-.036c.085-.098.172-.195.271-.29l-.043.63h-1.808c.05-.06.095-.112.136-.167a.12.12 0 0 0 .025-.067c.001-.551.002-1.102 0-1.653a.13.13 0 0 0-.027-.072c-.04-.054-.085-.105-.134-.164h1.735l.027.563c-.076-.082-.143-.15-.207-.222a.102.102 0 0 0-.086-.038c-.234.002-.468.001-.702.001h-.056v.56h.104c.119 0 .237.002.356 0 .021 0 .046-.01.063-.023.06-.048.117-.099.182-.153v.661c-.053-.046-.105-.086-.153-.131a.16.16 0 0 0-.12-.046c-.143.003-.285.001-.43.001v.645h-.002ZM10.963 17.41l-.169-.207c.91-.88 1.994-1.383 3.251-1.486 1.618-.133 3.021.366 4.208 1.483l-.171.21c-.994-.957-2.18-1.445-3.558-1.446-1.376 0-2.564.487-3.561 1.446ZM10.956 21.84h-.92c.055-.06.102-.114.15-.165.022-.022.027-.042.018-.07a7.245 7.245 0 0 1-.076-.255c-.007-.027-.018-.038-.047-.038-.228.002-.455 0-.682.002-.016 0-.04.017-.045.031a4.653 4.653 0 0 0-.094.27c-.005.016.002.042.014.056.043.056.09.108.143.17h-.719c.026-.032.046-.06.07-.082a.65.65 0 0 0 .152-.248c.194-.52.391-1.04.589-1.558.011-.03.012-.051-.008-.078-.035-.05-.067-.102-.104-.159h.728l.151.447c.162.479.323.957.487 1.436.01.03.03.059.05.084.044.051.091.1.144.157Zm-1.48-.849h.546l-.251-.843-.295.843ZM14.209 24.917h-.92c.053-.058.098-.11.147-.16.026-.025.03-.05.019-.083a5.344 5.344 0 0 1-.072-.245c-.008-.028-.02-.04-.051-.04-.226.002-.451.002-.677 0-.03 0-.043.011-.053.039-.028.087-.06.173-.087.26a.076.076 0 0 0 .012.06c.043.055.09.107.142.167h-.719c.043-.049.084-.09.118-.136.03-.039.06-.08.077-.126.207-.54.411-1.081.617-1.622.012-.031.01-.055-.01-.083-.034-.048-.065-.1-.102-.155.02-.002.034-.004.048-.004.21 0 .42.001.631-.001.04 0 .054.015.065.05.206.61.412 1.222.622 1.832.018.053.065.098.101.145.026.033.057.063.091.102Zm-1.48-.85h.546l-.246-.825h-.011l-.289.825ZM7.783 24.916c.05-.058.095-.11.136-.163a.136.136 0 0 0 .028-.076c.002-.547.002-1.095 0-1.642a.146.146 0 0 0-.03-.08c-.039-.054-.083-.104-.131-.161h.89c-.05.054-.105.111-.157.17a.103.103 0 0 0-.025.06c-.002.517-.002 1.032-.002 1.548l.002.03c.018.002.035.004.053.004.21 0 .421.001.631-.002a.117.117 0 0 0 .076-.034c.101-.103.2-.21.308-.313l-.08.66h-1.7.001ZM12.38 19.153l-.158-.194c1.093-1.35 3.418-1.419 4.603-.002l-.16.197c-.567-.648-1.284-.978-2.138-.98-.856 0-1.574.328-2.147.98ZM16.681 19.715h.867c-.043.055-.081.104-.122.151a.147.147 0 0 0-.039.104c.002.54.002 1.079 0 1.618 0 .04.01.07.036.1.041.047.08.097.125.153h-.867c.044-.053.08-.102.121-.146a.155.155 0 0 0 .042-.116c-.001-.54 0-1.08-.002-1.619a.157.157 0 0 0-.031-.084c-.038-.053-.081-.1-.13-.16Z"/><path d="m14.026 16.276.06.296-.615.126.042.209.563-.113.06.292-.565.116c.013.052.022.102.04.15.019.048.062.049.106.04l.451-.09.064-.012.06.295c-.097.02-.191.041-.285.059-.107.02-.213.046-.32.054-.21.015-.348-.087-.394-.291-.061-.27-.114-.542-.168-.813-.017-.084.02-.14.1-.156.265-.055.53-.107.8-.162ZM11.885 17.076l.252-.204c.006.01.01.02.018.03.16.197.321.392.48.59.168.21.18.45.036.658-.16.231-.442.344-.68.27a.516.516 0 0 1-.25-.168c-.169-.205-.336-.411-.503-.617-.005-.006-.009-.014-.014-.023l.245-.199.277.34c.075.091.15.183.227.273.066.077.15.113.251.08.108-.034.186-.104.211-.22.02-.086-.02-.156-.07-.22l-.31-.381-.17-.21ZM17.045 18.69c-.086-.078-.165-.15-.243-.223-.008-.008-.012-.03-.01-.042a.991.991 0 0 1 .036-.125c.01-.03.002-.045-.022-.063-.067-.048-.133-.099-.204-.151l.19-.137.11.081.125-.416-.051.031-.64.413c-.025.017-.043.02-.071.003-.084-.05-.17-.097-.262-.149.02-.014.034-.024.05-.033.354-.23.71-.456 1.062-.689.123-.081.206-.04.302.076.032.04.018.09.005.135l-.355 1.214a6.658 6.658 0 0 1-.022.075ZM15.96 17.025l-.075.289-.555-.143-.132.504c-.075-.022-.15-.04-.22-.066-.05-.02-.07-.076-.056-.132.07-.274.138-.55.217-.822.058-.203.213-.3.422-.26.195.035.386.09.582.138l-.076.295-.303-.077-.198-.051c-.08-.02-.11-.001-.134.077-.01.032-.017.064-.027.103l.556.145ZM22.499 23.06a.32.32 0 0 1-.327.32.32.32 0 1 1 .002-.641.32.32 0 0 1 .325.322Zm-.585-.003a.26.26 0 1 0 .52.006.26.26 0 1 0-.52-.006Z"/><path d="M22.052 22.88c.065 0 .129-.004.191 0 .044.004.072.033.077.08.004.048-.005.09-.055.11-.01.005-.021.01-.035.014l.096.153c-.039.015-.063.007-.08-.028-.014-.029-.034-.054-.048-.082-.018-.039-.045-.05-.088-.038v.15h-.058v-.36Zm.056.159c.041-.003.079 0 .113-.01.017-.005.037-.033.038-.052.001-.016-.022-.043-.038-.047-.036-.009-.074-.007-.113-.009v.118Z"/></g><g clip-path="url('#clip1_33_21')"><path d="M54.9 5c-.002.022-.003.045-.003.067l.001 5.823c0 .169-.018.333-.055.497-.207.916-.41 1.833-.614 2.75l-.017.065h-.58c.009-.029.015-.054.024-.078.282-.792.565-1.585.85-2.376a.217.217 0 0 0 .004-.143l-1.654-5.632-.024-.087c.026-.011.048-.022.07-.03l1.908-.817c.026-.01.05-.026.076-.039h.013ZM55.194 5c.023.013.044.029.068.039l1.914.818.064.029-.019.072-1.661 5.66a.178.178 0 0 0 .003.115l.856 2.396c.008.02.014.042.021.062a3.544 3.544 0 0 1-.577.008c-.004-.012-.01-.026-.013-.04l-.427-1.915c-.078-.351-.157-.702-.233-1.053a.43.43 0 0 1-.011-.092V5.06l.002-.06h.014ZM48 20.308h1.77v.523c-.062.006-.126.002-.19.003h-.986v.477c.179.006.358.002.538.003h.533c.016.05.02.402.008.525l-.264.001H48.593c-.007.168-.001.33-.004.5.07.006.136.002.202.003H49.8v.521c-.018.002-.035.005-.052.005h-1.748v-2.56ZM55.61 25l-.118-.026a.725.725 0 0 1-.567-.665.883.883 0 0 1 .04-.363.714.714 0 0 1 .572-.486.826.826 0 0 1 .455.04.587.587 0 0 1 .366.414l-.16.05-.163.046-.018-.039c-.07-.183-.24-.233-.39-.212a.392.392 0 0 0-.34.293.576.576 0 0 0-.004.33c.042.154.142.25.296.29.14.035.275.018.398-.062.083-.055.087-.063.075-.173h-.45v-.267h.767c.002.016.006.032.006.05v.401c.001.034-.01.06-.032.084a.802.802 0 0 1-.523.283c-.012.001-.025.007-.037.011h-.174V25ZM57.096 25 57 24.98c-.282-.063-.455-.258-.463-.546-.008-.312-.002-.625-.002-.937 0-.005.003-.008.007-.022.107-.002.217 0 .336 0v.077c0 .262-.002.523 0 .784 0 .057.006.117.022.171a.238.238 0 0 0 .193.174c.2.04.344-.067.362-.27.002-.029.002-.058.002-.087v-.846h.339c0 .022.003.043.003.065 0 .275.001.55-.001.824a.84.84 0 0 1-.025.212c-.067.242-.239.367-.479.409L57.23 25h-.134.001Z" fill="#000"/><path d="m57.301 14.892-.28-.785c1.111-.738 1.758-1.755 1.817-3.098.058-1.343-.497-2.413-1.547-3.245l.244-.832c.507.327.93.727 1.275 1.21.507.712.796 1.504.854 2.376a4.624 4.624 0 0 1-2.362 4.374ZM52.78 14.892a4.62 4.62 0 0 1-2.374-4.066 4.602 4.602 0 0 1 2.143-3.888l.243.826c-1.05.828-1.605 1.899-1.548 3.24.056 1.341.7 2.36 1.817 3.102l-.28.785Z" fill="#FF6E08"/><path d="M56.126 20.255c.146-.006.29.013.428.058.354.116.592.352.714.7.133.381.135.77 0 1.15-.155.434-.473.68-.928.747-.2.03-.401.022-.597-.033a1.068 1.068 0 0 1-.748-.68c-.15-.399-.153-.805-.005-1.205.157-.42.47-.656.91-.725.028-.005.057-.01.086-.01.047-.002.094 0 .14 0v-.002Zm.65 1.336a1.027 1.027 0 0 0-.095-.475.575.575 0 0 0-.366-.313c-.265-.076-.637-.012-.784.4-.064.18-.07.367-.05.556.013.107.04.21.09.307a.585.585 0 0 0 .306.287c.265.106.672.055.831-.355.051-.131.07-.268.069-.407ZM54.172 21.844l.567 1.026h-.072c-.174 0-.348-.002-.522 0-.046.001-.072-.012-.094-.054-.147-.268-.296-.535-.445-.802-.011-.022-.024-.043-.037-.065h-.31c-.008.076-.003.151-.004.226V22.866h-.578v-2.552c.016-.002.033-.005.05-.005.33 0 .66-.002.99 0a.976.976 0 0 1 .534.153c.254.165.37.404.359.704a.752.752 0 0 1-.327.602c-.034.025-.07.048-.112.076Zm-.913-.428c.017.002.027.004.038.004h.422a.459.459 0 0 0 .112-.018.246.246 0 0 0 .155-.11c.117-.19.01-.428-.21-.448-.167-.015-.335-.006-.502-.008-.004 0-.007.005-.015.009v.571ZM62.073 22.867h-.661l-.185-.48h-1.003l-.184.478h-.662l1.035-2.554h.624l1.036 2.555Zm-1.34-1.777-.016.002-.29.763c.204-.001.396.002.597-.002l-.291-.763ZM51.716 20.312h.58c.002.017.005.034.005.05v1.542c0 .105-.016.209-.046.31a.894.894 0 0 1-.561.613c-.31.118-.626.12-.937.005-.34-.127-.536-.38-.599-.737a1.521 1.521 0 0 1-.018-.253c-.002-.486-.001-.974-.001-1.46l.003-.07h.577l.003.079.001 1.413c0 .076.008.153.025.226a.434.434 0 0 0 .403.353c.05.005.103.005.153-.002.237-.035.383-.196.406-.445a1.72 1.72 0 0 0 .006-.154v-1.47ZM57.717 20.31l.05-.002h.964c.126 0 .249.02.367.065.328.125.5.366.528.714a.896.896 0 0 1-.042.363c-.095.28-.297.445-.577.517a1.622 1.622 0 0 1-.304.038c-.111.006-.223.002-.335.002h-.073v.857h-.574a83.352 83.352 0 0 1-.005-2.554Zm.582.533v.63c.16 0 .317.005.473-.002a.274.274 0 0 0 .216-.118c.143-.201.027-.484-.217-.508-.153-.015-.307-.006-.461-.008-.002 0-.004.002-.01.006ZM53.167 15.493l.308-.863h3.122l.31.863h-3.74ZM58.553 17.94l-.153.19c-.939-.908-2.06-1.37-3.359-1.37-1.297 0-2.417.46-3.36 1.37l-.153-.188c1.812-1.895 5.151-1.937 7.025-.001ZM55.044 11.771l.539 2.422c-.052.014-1.007.018-1.094.004l.54-2.426h.015ZM53.953 23.475h.365l.604 1.492h-.386l-.109-.278h-.584l-.11.279h-.385l.604-1.493Zm.351.9c-.045-.155-.144-.399-.177-.436l-.165.435h.343ZM53.017 19.781l-.15-.185c1.082-1.298 3.236-1.319 4.346 0-.05.06-.099.121-.15.185-.54-.614-1.218-.927-2.026-.927-.805.001-1.481.313-2.02.928ZM53.184 24.663v.304h-1.041v-1.49h1.016c.015.043.019.206.005.302h-.681v.28h.62c.016.054.018.233.004.309h-.623v.293c.077.002.154.001.231.001h.469ZM58.969 24.062v.304h-.62a.856.856 0 0 0-.005.297h.695v.303h-1.035a26.28 26.28 0 0 1-.007-1.482 12.8 12.8 0 0 1 1.025-.005v.298c-.073.008-.148.002-.223.004h-.459v.28h.629Z" fill="#000"/><path d="m54.572 17.059.055.276c-.193.04-.381.08-.58.12l.04.198.527-.106c.029.088.04.18.06.276l-.522.107a.29.29 0 0 0 .028.145c.014.033.044.043.077.039.047-.007.093-.015.139-.024l.368-.075.059.28c-.071.015-.136.03-.201.042-.1.02-.2.043-.302.059a.546.546 0 0 1-.16.004c-.149-.021-.238-.115-.277-.256-.022-.08-.036-.161-.053-.242l-.104-.518a.303.303 0 0 1-.007-.047c-.004-.071.024-.111.099-.128.118-.027.236-.05.354-.074l.334-.068c.02-.004.04-.005.066-.008ZM52.553 17.81l.227-.184c.01.01.021.018.029.028l.447.55a.498.498 0 0 1 .102.488.615.615 0 0 1-.642.41.446.446 0 0 1-.244-.117.743.743 0 0 1-.078-.082l-.443-.546c-.009-.01-.016-.021-.026-.035l.23-.189.048.056.355.437c.02.026.041.052.064.077.137.152.355.113.435-.076a.206.206 0 0 0-.013-.193.86.86 0 0 0-.074-.103l-.405-.5-.012-.02ZM57.004 18.769l.177-.127.105.073c.04-.125.077-.247.104-.375-.08.04-.153.09-.227.137l-.219.141-.225.146-.277-.157c.019-.015.032-.026.046-.035.335-.218.673-.431 1.004-.654.123-.082.22-.007.283.079.027.037.015.082.002.123l-.13.45-.203.7-.019.057a1.171 1.171 0 0 1-.247-.215l.047-.175-.22-.168h-.001ZM51.975 24.662v.298c-.052.013-.972.016-1.045.002v-1.486h.338c.002.195 0 .39 0 .586v.597c.081.006.159.002.236.003h.471ZM56.567 17.302c-.023.094-.046.182-.07.272-.019-.003-.034-.004-.049-.008l-.401-.103c-.017-.004-.035-.009-.053-.01-.046-.004-.068.007-.084.048-.016.039-.025.08-.039.127l.525.137-.07.273-.525-.134-.124.474c-.058-.015-.11-.026-.16-.04-.087-.025-.117-.074-.096-.161l.14-.544a23.98 23.98 0 0 1 .065-.24c.065-.172.209-.26.39-.227.13.024.257.061.384.093l.167.044Z" fill="#000"/></g><g clip-path="url('#clip2_33_21')" fill="#432060"><path d="M97.69 8.422c.03.001.051-.002.07.003.708.186 1.392.428 2.001.844.165.113.319.24.472.37a.241.241 0 0 1 .077.142c.061.515.256.986.464 1.453.014.03.027.06.027.101-.012-.008-.026-.015-.036-.025a8.973 8.973 0 0 0-2.005-1.447c-.076-.04-.157-.072-.234-.11-.057-.029-.078-.01-.09.049a9.118 9.118 0 0 1-.112.489c-.019.07-.058.136-.087.204-.028.066-.067.065-.121.027-.184-.125-.365-.254-.555-.369-.31-.187-.628-.362-.94-.548-.161-.096-.326-.097-.505-.064-.68.128-1.328.34-1.918.706-.136.085-.265.181-.395.275-.07.05-.069.069-.003.122l.258.211c.058.048.056.072-.012.095-.468.16-.845.453-1.175.812-.016.016-.023.041-.033.062.02.008.042.02.063.024.18.028.361.056.542.082.049.007.075.027.081.078.096.75.588 1.14 1.255 1.36.324.107.663.089.999.082.547-.01 1.095-.06 1.638.053.109.023.216.053.323.08l.12.03c-.019-.027-.027-.042-.038-.054a12.038 12.038 0 0 0-1.118-1.101c-.145-.127-.325-.162-.51-.17a6.565 6.565 0 0 0-.524-.002c-.417.016-.8-.095-1.162-.294l-.258-.146c-.048-.027-.05-.054-.007-.09.34-.285.722-.493 1.152-.598a.688.688 0 0 1 .355.028c.38.123.742.285 1.07.516.05.036.083.033.129-.006.17-.145.364-.244.583-.29.014-.004.03-.01.043-.008.023.004.044.012.066.018-.01.018-.017.04-.03.055-.156.186-.255.394-.22.644a.256.256 0 0 0 .068.133c.36.369.724.734 1.084 1.104.056.057.1.075.178.04.274-.124.568-.159.865-.173.36-.017.715 0 1.061.11.069.021.137.05.215.064-.018-.024-.034-.05-.054-.072a6.52 6.52 0 0 0-.854-.765 1.686 1.686 0 0 1-.45-.513c-.088-.158-.21-.298-.318-.445-.015-.022-.032-.041-.05-.062l.01-.02c.025.006.052.008.075.018.21.089.408.199.586.343.075.06.085.058.15-.014.122-.135.277-.213.444-.272.054-.019.098-.004.135.035a.94.94 0 0 1 .258.522c.005.037-.017.085-.041.117-.028.04-.07.069-.108.1-.077.065-.079.082-.012.153l.484.51.091.096.023-.001.07-.458c.023.015.038.02.045.03.565.81 1.049 1.664 1.369 2.605.31.915.451 1.852.406 2.817-.037.81-.209 1.592-.462 2.36a.272.272 0 0 1-.02.047c-.003.006-.01.01-.042.04-.013-.025-.019-.055-.037-.074a89.204 89.204 0 0 0-.582-.632c-.013-.015-.035-.022-.053-.032-.009.016-.023.031-.025.048a6.684 6.684 0 0 1-.323 1.486c-.393 1.172-1.082 2.143-2.028 2.933-.23.192-.48.363-.722.542-.082.06-.098.052-.123-.044l-.24-.923c-.025-.095-.032-.098-.11-.045-.891.609-1.878.973-2.94 1.145a2.448 2.448 0 0 1-.354.029c-.417.004-.834.004-1.252.004-.402 0-.786-.101-1.167-.213a5.26 5.26 0 0 1-.944-.386c-.11-.057-.119-.077-.093-.199.118-.572.219-1.148.273-1.731a7.392 7.392 0 0 0-.241-2.727c-.018-.065-.039-.129-.065-.213-.11.159-.204.297-.301.434a11.814 11.814 0 0 1-1.76 2.003c-.122.109-.25.21-.377.313-.062.051-.086.045-.13-.034a4.151 4.151 0 0 1-.369-.925 8.957 8.957 0 0 1-.301-2.045c-.021-.556-.009-1.11.052-1.663.018-.168.064-.334.095-.5.005-.026.001-.052.001-.078-.023.003-.047 0-.07.007-.441.133-.882.268-1.323.4-.024.008-.05.012-.08.017-.02-.187.01-.362.044-.536a8.78 8.78 0 0 1 1.358-3.254c.103-.151.224-.289.336-.433.013-.016.02-.037.028-.056-.02-.009-.04-.022-.062-.026-.258-.04-.517-.078-.775-.117-.068-.01-.06-.045-.035-.094a8.723 8.723 0 0 1 1.029-1.553 9.006 9.006 0 0 1 1.535-1.451c.027-.02.058-.036.106-.064-.254.666-.232 1.293.172 1.877.126.182.29.332.52.429l-.102-.227a2.26 2.26 0 0 1-.217-1.077c.018-.29.084-.563.287-.783.265-.286.596-.368.972-.304.24.04.459.132.661.265.021.014.044.024.072.026-.22-.5-.565-.847-1.149-.933.04-.028.062-.05.088-.061a9.152 9.152 0 0 1 2.456-.767c.64-.101 1.285-.125 1.934-.105.282.009.507.108.724.267.312.229.59.493.846.784.012.014.034.02.05.03.005-.02.013-.04.012-.06a2.223 2.223 0 0 0-.187-.757c-.007-.015-.01-.031-.017-.058l-.002-.001Zm1.971 6.857c0-.163-.001-.326.001-.489 0-.06-.021-.096-.079-.117a3.338 3.338 0 0 1-.871-.464c-.099-.073-.19-.095-.3-.054-.01.004-.019.006-.029.008-.828.217-1.53.671-2.204 1.175-.041.03-.043.067-.02.11.294.54.587 1.08.883 1.617a.16.16 0 0 0 .11.07c.087.007.177.002.265-.01.308-.042.584-.173.855-.316.485-.256.916-.59 1.34-.933.029-.023.046-.076.047-.115.005-.16.002-.321.002-.482Zm-.158 3.137c.01.017.015.025.018.034.01.025.02.05.026.077.07.345.132.692.113 1.048-.001.02.01.04.016.06.02-.006.045-.006.059-.018.146-.133.302-.257.431-.404.322-.363.492-.804.603-1.269a.245.245 0 0 0-.005-.123 2.375 2.375 0 0 0-.397-.764.178.178 0 0 0-.154-.072c-.224.007-.448.008-.672.02a.349.349 0 0 0-.168.06c-.235.16-.46.333-.696.49-.32.211-.656.392-1.045.447-.063.009-.064.042-.038.088l.518.948c.025.046.059.06.11.045.453-.13.877-.314 1.233-.632.013-.011.027-.02.048-.035Zm1.682-1.429c.02-.03.036-.048.046-.069.035-.078.072-.157.101-.238.131-.373.169-.758.139-1.151a4.211 4.211 0 0 0-.3-1.275c-.029-.073-.043-.074-.106-.03-.223.155-.447.306-.667.464-.034.024-.066.074-.067.112-.007.162-.003.325-.001.488 0 .118.014.238.002.355a.44.44 0 0 0 .145.383c.271.272.516.564.677.918.005.01.014.02.032.044h-.001Z"/><path d="M98.765 5.753c-.01.03-.016.062-.03.09-.213.448-.326.924-.412 1.408-.04.224-.07.449-.098.674-.008.069-.035.076-.096.063-.348-.072-.694-.155-1.044-.208a9.242 9.242 0 0 0-.98-.09 9.1 9.1 0 0 0-4.484.973c-.078.038-.154.08-.23.12-.086.046-.094.04-.132-.052-.137-.338-.268-.679-.418-1.01a4.56 4.56 0 0 0-.583-.96c-.01-.012-.007-.033-.01-.05.014.002.032 0 .045.006.502.242.974.533 1.408.884.015.012.032.02.07.025l-.317-1.957c.036.015.056.018.072.029l1.987 1.343c.095.064.103.06.141-.048l.669-1.92L94.35 5l.05.075 1.086 1.705c.064.102.08.103.161.014l1.59-1.706c.009-.01.016-.02.025-.028.014-.011.03-.02.046-.03.008.018.022.036.023.055.045.618.09 1.236.133 1.854.002.019.007.037.014.077.38-.486.798-.911 1.287-1.263Z"/></g><g clip-path="url('#clip3_33_21')" fill="#FF514A"><path d="m138.156 15.732-1.928.985c-.868.444-1.738.887-2.603 1.337-.136.07-.233.1-.342-.045-.346-.457-.716-.897-1.048-1.364-.502-.704-.511-1.354-.023-2.072.665-.978 1.348-1.945 2.028-2.913 1.412-2.01 2.849-4.001 4.226-6.035.332-.491.673-.653 1.239-.621.848.049 1.7.01 2.551.01.076 0 .153.01.276.02-.063.11-.099.188-.147.257l-7.029 9.98c-.026.037-.06.072-.072.113-.025.08-.067.173-.044.242.013.039.138.058.212.058.77.003 1.54 0 2.31-.001h.375l.019.05ZM135.767 5.038c-.13.19-.232.342-.338.493-1.3 1.846-2.602 3.69-3.899 5.538-.057.08-.076.189-.112.284.099.027.197.076.297.077.732.006 1.464.003 2.218.056-.311.157-.622.313-.931.471-.971.499-1.943.995-2.91 1.5-.179.094-.292.109-.425-.08-.278-.395-.593-.764-.875-1.156-.404-.562-.422-1.166-.059-1.74.469-.742.984-1.454 1.48-2.178.706-1.027 1.409-2.055 2.124-3.074.071-.1.22-.205.335-.207.975-.015 1.95-.008 2.925-.006.035 0 .07.009.17.023ZM138.647 22.767c0 .359.003.718-.001 1.076-.003.249.115.363.359.361.277-.002.555.005.832-.002.279-.008.358-.097.361-.383.001-.036 0-.072-.001-.107-.004-.422-.004-.428-.419-.437-.167-.003-.255-.054-.239-.233a.912.912 0 0 0 0-.188c-.036-.254.059-.369.323-.332.235.033.526-.023.691.098.206.15.403.43.435.677.094.709-.085 1.3-.726 1.545a2.354 2.354 0 0 1-1.757-.026c-.446-.182-.654-.584-.669-1.054-.02-.663-.024-1.328.001-1.991.028-.724.476-1.156 1.197-1.19.312-.016.626-.018.937.008.552.048.92.4 1.02.912.034.176-.025.234-.185.235-.117 0-.233-.003-.349.002-.141.006-.216-.039-.277-.186a.449.449 0 0 0-.306-.231c-.292-.033-.589-.016-.884-.011-.226.003-.345.116-.342.353.004.367.001.735 0 1.103h-.001ZM143.123 20.622c.691 0 .677.004.852.671.25.954.522 1.9.784 2.85.022.078.048.155.062.234.083.476-.091.648-.563.539-.065-.015-.138-.106-.159-.177a11.73 11.73 0 0 1-.227-.884c-.048-.224-.147-.287-.358-.18-.271.138-.543.276-.823.391-.273.112-.432.287-.478.588-.036.239-.488.392-.681.241-.041-.032-.069-.11-.066-.164.009-.178.012-.361.057-.531.289-1.092.597-2.178.877-3.271.061-.241.161-.337.4-.31.106.013.215.003.322.003h.001Zm-.012 2.922c.08 0 .16.002.241 0 .398-.009.427-.054.325-.448-.127-.493-.24-.99-.37-1.482-.023-.089-.102-.164-.155-.245-.06.08-.15.15-.174.24-.121.448-.228.9-.335 1.353-.139.583-.137.583.468.583ZM130.794 20.63c.629.017.616-.136.827.684.243.945.514 1.883.772 2.824.024.087.052.173.061.262.066.603.001.536-.544.513-.066-.002-.158-.132-.184-.218-.087-.292-.153-.59-.221-.886-.043-.189-.144-.23-.313-.148-.289.14-.575.289-.872.413-.263.109-.416.279-.462.567-.042.254-.511.41-.695.235-.048-.045-.07-.15-.059-.22.054-.325.105-.653.19-.971.257-.96.525-1.917.801-2.871.022-.076.131-.16.212-.176.147-.029.303-.008.488-.008h-.001Zm.001 2.916h.161c.448-.005.483-.052.373-.48-.128-.492-.248-.988-.382-1.479-.022-.081-.103-.146-.156-.218-.056.07-.143.132-.164.212-.12.439-.227.882-.333 1.326-.104.431.063.644.501.638ZM133.873 22.37v1.4c.001.383.002.384.395.385.34.001.68.006 1.02-.004.189-.005.274.05.273.258-.001.518.007.518-.507.515-.349-.002-.697-.005-1.046-.005-.463 0-.905-.374-.919-.847-.031-1.085-.028-2.17-.033-3.255 0-.058.051-.165.085-.168.212-.016.428-.021.64 0 .038.003.09.14.091.215.008.502.004 1.005.004 1.507h-.003ZM126.004 22.438c0-.52.007-1.04-.004-1.559-.003-.19.065-.248.247-.253.57-.017.565-.023.561.532-.006.878-.007 1.756-.004 2.634 0 .344.025.363.368.365.366.002.733.008 1.099-.003.168-.005.217.063.219.22.01.542.014.542-.511.542l-1.045.003a.935.935 0 0 1-.93-.922c-.008-.52-.002-1.04-.002-1.559h.002ZM137.041 22.77c0 .627-.008 1.254.004 1.881.004.215-.074.279-.28.28-.549 0-.548.007-.548-.533.001-1.156.007-2.312-.005-3.467-.002-.238.07-.312.303-.308.642.013.519-.028.526.534.006.538.001 1.076.001 1.613h-.001Z"/></g><g clip-path="url('#clip4_33_21')"><path d="M168.4 22.834c-.013-.012-.025-.043-.006-.062l.283-.326c.012-.018.037-.018.055-.006.166.136.394.258.665.258.27 0 .412-.122.412-.301 0-.148-.092-.24-.393-.283l-.136-.019c-.517-.067-.8-.313-.8-.762 0-.45.351-.776.898-.776.339 0 .647.099.862.265.025.012.025.03.006.055l-.227.338c-.013.019-.037.025-.05.013a1.031 1.031 0 0 0-.59-.19c-.222 0-.338.116-.338.276 0 .148.104.24.393.277l.136.025c.523.067.8.308.8.769s-.338.8-.997.8c-.394-.006-.775-.16-.972-.35h-.001ZM170.665 20.643c0-.024.012-.037.037-.037h1.624c.025 0 .037.012.037.037v.4c0 .025-.012.037-.037.037h-1.089c-.012 0-.024.006-.024.025v.505c0 .012.006.024.024.024h.911c.025 0 .037.013.037.037v.394c0 .024-.012.037-.037.037h-.911c-.012 0-.024.006-.024.025v.523c0 .012.006.024.024.024h1.089c.025 0 .037.013.037.037v.4c0 .025-.012.037-.037.037h-1.624c-.025 0-.037-.012-.037-.037v-2.467ZM174.098 23.141c-.031 0-.043-.012-.055-.037l-.437-.929h-.345c-.012 0-.024.006-.024.025v.904c0 .025-.013.037-.038.037h-.473c-.025 0-.038-.012-.038-.037v-2.461c0-.025.013-.038.038-.038h1.009c.517 0 .862.327.862.788a.733.733 0 0 1-.45.701l.499.997c.012.025 0 .043-.025.043h-.523v.007Zm-.043-1.747c0-.19-.135-.314-.344-.314h-.449c-.013 0-.025.006-.025.025v.584c0 .013.006.025.025.025h.449c.209-.006.344-.13.344-.32ZM174.948 20.643c0-.024.012-.037.037-.037h.474c.024 0 .037.012.037.037v2.462c0 .024-.013.037-.037.037h-.474c-.025 0-.037-.013-.037-.037v-2.462ZM175.901 20.643c0-.024.013-.037.037-.037h1.625c.025 0 .037.012.037.037v.4c0 .025-.012.037-.037.037h-1.089c-.012 0-.025.006-.025.025v.505c0 .012.007.024.025.024h.911c.025 0 .037.013.037.037v.394c0 .024-.012.037-.037.037h-.911c-.012 0-.025.006-.025.025v.523c0 .012.007.024.025.024h1.089c.025 0 .037.013.037.037v.4c0 .025-.012.037-.037.037h-1.625c-.024 0-.037-.012-.037-.037v-2.467ZM179.422 20.643c.006-.024.024-.037.049-.037h.467c.025 0 .043.012.05.037l.855 2.462c.006.024 0 .037-.025.037h-.486c-.024 0-.043-.013-.049-.037l-.148-.443h-.886l-.141.443c-.007.024-.025.037-.05.037h-.486c-.025 0-.037-.013-.025-.037l.874-2.462h.001Zm.566 1.55-.289-.886h-.013l-.289.887h.591Z" fill="#1A1659"/><path d="M171.785 24.378H166V25h5.785v-.622Z" fill="#00B74F"/><path d="M177.557 24.378h-5.772V25h5.772v-.622Z" fill="#E3E3E2"/><path d="M183.342 24.378h-5.785V25h5.785v-.622Z" fill="#E4002B"/><path d="m174.664 19.326-6.172-3.913h3.779l2.393 3.913ZM174.665 19.326l6.178-3.913h-3.784l-2.394 3.913ZM174.664 9.092l-2.393 6.32h4.787l-2.394-6.32Z" fill="#1A1659"/><path d="m172.271 15.413 2.393 3.913 2.394-3.913h-4.787Z" fill="url('#paint0_linear_33_21')"/><path d="m174.664 9.092 1.034 2.726h-1.304l-.887 2.351h3.084l.467 1.243h3.785L176.369 5h-3.409l-4.468 10.412h3.785l2.387-6.32Z" fill="url('#paint1_linear_33_21')"/></g><g clip-path="url('#clip5_33_21')"><path d="M225.972 5h-20.965v16.765h20.965V5Z" fill="#D20515"/><path d="M222.279 13.835c0 .036-.036.072-.109.109l-.036.036v.036c0 .025-.012.049-.036.073l-.072.036h-.073v-.036l-.072.036v.036c0 .024-.012.049-.036.073l-.073.036h-.072v-.036c-.253.145-.579.253-.869.398v.036c0 .025-.012.049-.036.073l-.073.036h-.072l-.037-.036-.108.036.036.036c0 .024-.012.049-.036.072l-.072.037h-.073l-.036-.037c-.145.073-.29.073-.398-.144-.037-.109-.037-.326-.073-.435-.036-.072-.108-.072-.108-.072-1.377-.254-1.811.036-2.716-.181-.29-.073-.434-.326-.761-.326-.724-.036-.941 0-1.774-.036-.036.108-.036.144-.036.144h-2.824l.434.218.145 1.231s-.109.036-.145.036c.036.254.036.58.072.87 0 .253.037.542.037.724 0 .072 0 .18-.073.326-.036.108-.144.18-.217.217-.036.036-.145.109-.253.181l-.362.181c0 .037.036.072.036.109-1.702.832-3.838 1.086-4.526 2.426-.072.145-.362.072-.362-.109v-.253h-.037c-.036 0-.036-.037-.036-.073v-.072c0-.037.036-.072.036-.072h.037c0-.073.036-.145.036-.218h-.036c-.037 0-.037-.036 0-.072l.036-.072c0-.037.036-.073.072-.037h.037c.108-.29.362-.398.47-.688-.036 0-.036-.036 0-.072l-.036-.073c0-.036.036-.072.072-.036h.037c0-.036.036-.073.072-.109h-.037c-.036 0-.036-.036 0-.072l.037-.073c.024-.024.048-.036.072-.036l.036-.036a.33.33 0 0 1 .363 0c.108.072.543.29.941-.072.651-.616 1.448-1.413 2.028-1.449-.145-.326-.435-1.05-.471-1.34l-.181-.036c-.109-.217-.362-1.231-.435-2.028 0 0-.072-.833 0-1.122-.036 0-.145.072-.145.072-.108-.254.254-2.499.58-3.15l.543-.217c-.072 0-.434-.037-1.448-.109-.58.507-1.195 1.05-1.557 1.34-.073.036-.145.362-.145.362s-.145.145-.326.253c-.217.146-.688.254-.797.073-.036-.036-.036-.072 0-.072.073-.073.363-.218.471-.399-.145.073-.326.181-.471.145-.072 0-.108-.145 0-.181.218-.072.363-.145.507-.29.109-.18.254-.29.471-.29 0 0 .942-1.231 1.485-1.81.145-.145.434-.109.434-.109l.037-.181s1.882-.217 2.788.072c-.036-.543.217-1.23 1.05-1.23.434 0 1.05.398 1.158.832.037.145-.072.253-.108.434-.072.29.036.58 0 .652-.036.073-.109.073-.181.181a4.231 4.231 0 0 0-.181.326l-.109.253-.579-.036c-.217.47-.652 1.412-.797 2.354.471.036 2.571.326 2.571.326l.036.18s.87.11 1.594.435c.145.036.579-.036.833.109l.072-.073c.941.29 1.738.796 2.643 1.014l.58.145c.325.072.543.072.724.108.29.037.47.037.651.037.109-.037.326-.073.362.145m1.376-2.86c-.652 0-1.159.507-1.159 1.159s.507 1.158 1.159 1.158c.651 0 1.158-.507 1.158-1.158 0-.652-.543-1.16-1.158-1.16Z" fill="#fff"/><path d="M206.856 24.348c0 .398-.189.612-.692.612H205v-2.25h1.12c.523 0 .701.205.701.588 0 .289-.109.423-.417.498l-.06.015.049.01c.353.079.463.208.463.527Zm-1.318-.697h.472c.189 0 .269-.08.269-.274 0-.204-.08-.283-.269-.283h-.472v.557Zm.776.642c0-.203-.085-.293-.274-.293h-.503v.582h.503c.199-.005.274-.09.274-.289Zm.911-.064V22.71h.562v1.498c0 .248.115.343.418.343.304 0 .418-.095.418-.343V22.71h.563v1.512c0 .528-.309.772-.976.772-.681.005-.985-.24-.985-.767Zm4.583-1.518v2.25h-.682l-.955-1.628v1.627h-.523v-2.25h.682l.955 1.628v-1.627h.523Zm.462 0h1.001c.786 0 .995.323.995 1.12 0 .796-.224 1.124-.995 1.124h-1.001v-2.244Zm.986 1.821c.328 0 .433-.17.433-.697 0-.527-.105-.691-.433-.691h-.428v1.388h.428Zm1.418-1.821h1.572v.428h-1.01v.472h.841v.423h-.841v.493h1.035v.428h-1.597v-2.244Zm1.926 2.16v-.438c.268.09.512.124.751.124.259 0 .373-.07.373-.244 0-.149-.049-.199-.254-.239l-.373-.08c-.388-.08-.517-.238-.517-.621 0-.493.288-.707.875-.707a2 2 0 0 1 .717.125v.438a2.039 2.039 0 0 0-.682-.12c-.278 0-.368.075-.368.249 0 .144.064.189.244.224l.363.08c.423.089.537.233.537.636 0 .483-.298.702-.9.702a2.26 2.26 0 0 1-.767-.13h.001Zm2.05-2.16h.563v1.816h.965v.428h-1.523l-.005-2.244Zm1.876 0h.563v2.25h-.563v-2.25Zm2.887.95v1.224c-.209.07-.488.115-.777.115-.781 0-1.149-.343-1.149-1.165 0-.82.368-1.164 1.149-1.164.279 0 .543.045.742.125v.433a2.206 2.206 0 0 0-.697-.12c-.473 0-.617.189-.617.721 0 .533.154.737.597.737.1 0 .199-.005.293-.02v-.498h-.418v-.388h.877Zm1.831.826h-.881l-.159.473h-.558l.801-2.25h.717l.801 2.25h-.563l-.159-.473h.001Zm-.439-1.423-.323 1.015h.647l-.324-1.015Z" fill="#000"/></g><g clip-path="url('#clip6_33_21')"><path d="M248.146 5.146h13.416v19.687h-13.416V5.146ZM248 5h13.75v20H248V5Z" fill="#091C3E"/><path fill-rule="evenodd" clip-rule="evenodd" d="M255.132 20.736h1.07V21h-.778v.375h.757v.25h-.757V22h.778v.264h-1.07v-1.527Zm3.451 1.174h.285c.035.125.125.16.292.16.125 0 .208-.049.208-.118 0-.049-.027-.077-.132-.098l-.27-.062c-.243-.056-.361-.16-.361-.327 0-.236.208-.36.507-.36.34 0 .514.152.527.389h-.284c-.028-.125-.132-.16-.264-.16-.125 0-.195.041-.195.11 0 .05.048.077.187.105l.243.048c.23.049.341.167.341.32 0 .215-.188.375-.514.375-.355 0-.528-.16-.57-.382Zm-.083.354h-.305c-.195 0-.299-.118-.299-.27v-.605h-.215v-.257h.215v-.32h.285v.32h.32v.257h-.32v.528c0 .062.042.09.104.09h.216v.257h-.001Zm-.944-1.125v1.125h-.285v-.104a.578.578 0 0 1-.361.132h-.028a.59.59 0 1 1 .028-1.18.56.56 0 0 1 .361.131v-.104h.285Zm-.618.903a.34.34 0 0 0 .34-.34v-.007c0-.188-.16-.34-.347-.34-.188 0-.34.16-.34.347 0 .187.159.34.347.34ZM252.465 19.695h-.368v-1.466h.368v1.466Zm-.638-.306v.306h-1.063v-1.466h.368v1.16h.695Zm4.868.007h.722v.305h-1.09v-1.465h1.069v.305h-.701v.258h.569v.291h-.569v.306Zm2.041-1.174h.215v1.465h-.354V18.66l-.326.173-.07-.312.535-.292v-.007Zm-3.173.007h.368v.82c0 .43-.278.66-.695.66-.417 0-.694-.223-.694-.66v-.82h.368v.848c0 .16.097.32.326.32s.327-.16.327-.32v-.848Zm-1.056 2.91h.077v.202h-.09c-.14 0-.243.11-.243.284v.633h-.216v-1.111h.216v.139a.293.293 0 0 1 .257-.146h-.001Zm-1.854.583a.58.58 0 0 1-.986.403v.14h-.215v-1.529h.215v.556a.569.569 0 0 1 .396-.167h.027c.32.007.577.278.563.597Zm-.215-.02a.392.392 0 0 0-.389-.382.39.39 0 0 0-.382.389c0 .215.173.382.389.382a.392.392 0 0 0 .382-.39Zm1.444.076h-.903a.38.38 0 0 0 .368.32.375.375 0 0 0 .32-.16l.16.117a.57.57 0 0 1-.48.236.575.575 0 0 1-.59-.583c0-.333.257-.576.57-.576.312 0 .555.243.555.576v.07Zm-.222-.174a.342.342 0 0 0-.333-.284c-.167 0-.299.117-.34.284h.673Zm-2.632-.868h.229v1.528h-.222v-.146a.572.572 0 0 1-.403.167c-.326 0-.576-.236-.576-.598v-.951h.229v.944c0 .244.153.403.368.403s.375-.16.375-.402v-.945Zm1.764-1.778c0-.416.333-.75.833-.75.243 0 .438.049.542.105l-.09.32a.977.977 0 0 0-.438-.091c-.277 0-.465.167-.465.423 0 .257.208.438.465.438.09 0 .167-.02.23-.049v-.375l.34-.041v.597c-.077.062-.264.18-.59.18-.486 0-.827-.333-.827-.757Z" fill="#fff"/><path d="M259.618 12.452c-.701 1.479-1.486 2.764-2.507 4.014-1.423.222-2.805.187-4.333.042l1-1.598a17.28 17.28 0 0 0 2.396-.02c.576-.764 1.062-1.59 1.5-2.445a15.157 15.157 0 0 0-1.16-1.923l.993-1.59c.819 1.083 1.569 2.242 2.111 3.52ZM253.202 13.778l-.993 1.59c-.861-1.139-1.556-2.243-2.111-3.514a18.3 18.3 0 0 1 2.507-4.02c1.52-.174 2.895-.195 4.333-.042l-1 1.597a17.272 17.272 0 0 0-2.396.02c-.583.757-1.062 1.59-1.5 2.445.333.66.708 1.257 1.16 1.924Z" fill="#CDFB0A"/><path d="M254.854 13.438a1.292 1.292 0 1 0 0-2.584 1.292 1.292 0 0 0 0 2.584Z" fill="#fff"/></g><defs><clipPath id="clip0_33_21"><path fill="#fff" transform="translate(4 5)" d="M0 0h21.045v20H0z"/></clipPath><clipPath id="clip1_33_21"><path fill="#fff" transform="translate(48 5)" d="M0 0h14.073v20H0z"/></clipPath><clipPath id="clip2_33_21"><path fill="#fff" transform="translate(87 5)" d="M0 0h16.127v20H0z"/></clipPath><clipPath id="clip3_33_21"><path fill="#fff" transform="translate(126 5)" d="M0 0h18.841v20H0z"/></clipPath><clipPath id="clip4_33_21"><path fill="#fff" transform="translate(166 5)" d="M0 0h17.341v20H0z"/></clipPath><clipPath id="clip5_33_21"><path fill="#fff" transform="translate(205 5)" d="M0 0h20.972v20H0z"/></clipPath><clipPath id="clip6_33_21"><path fill="#fff" transform="translate(248 5)" d="M0 0h13.75v20H0z"/></clipPath><linearGradient id="paint0_linear_33_21" x1="172.271" y1="17.369" x2="177.058" y2="17.369" gradientUnits="userSpaceOnUse"><stop stop-color="#31ECFF"/><stop offset=".05" stop-color="#2DE2FF"/><stop offset=".3" stop-color="#1BB2FF"/><stop offset=".51" stop-color="#0E90FF"/><stop offset=".69" stop-color="#067BFF"/><stop offset=".81" stop-color="#0373FF"/></linearGradient><linearGradient id="paint1_linear_33_21" x1="178.213" y1="5.671" x2="173.945" y2="17.397" gradientUnits="userSpaceOnUse"><stop stop-color="#31ECFF"/><stop offset=".05" stop-color="#2DE2FF"/><stop offset=".29" stop-color="#1BB2FF"/><stop offset=".51" stop-color="#0E90FF"/><stop offset=".69" stop-color="#067BFF"/><stop offset=".8" stop-color="#0373FF"/></linearGradient></defs></svg>