<svg width="61" height="75" fill="none" xmlns="http://www.w3.org/2000/svg"><g clip-path="url('#clip0_353_2169')" fill="#1E1930"><path d="M40.117 12.825c.135.008.218 0 .293.023 2.362.622 4.665 1.387 6.742 2.7.878.547 1.68 1.207 2.498 1.837a.86.86 0 0 1 .292.532c.233 1.943.96 3.713 1.748 5.475.052.113.09.233.135.346-.023.015-.038.022-.06.037-.15-.142-.3-.285-.458-.427-2.167-2.033-4.582-3.713-7.2-5.115-.285-.15-.585-.27-.877-.413-.203-.098-.278-.023-.323.18-.12.578-.232 1.163-.382 1.733-.068.277-.203.54-.323.794-.18.368-.217.368-.555.15-1.012-.667-2.017-1.342-3.045-1.98-.817-.502-1.68-.93-2.512-1.424-.608-.368-1.23-.353-1.898-.226-2.43.458-4.747 1.193-6.877 2.468-.615.367-1.2.802-1.793 1.215-.247.172-.24.255-.007.442l.967.788c.233.195.225.27-.052.367-1.755.608-3.165 1.703-4.403 3.053-.052.06-.075.158-.105.233.075.022.143.06.218.075l2.055.315c.172.022.262.097.285.277.315 2.67 2.04 4.117 4.38 5.01.922.352 1.897.42 2.865.42 1.425-.008 2.85-.068 4.275-.082 1.477-.015 2.94.142 4.357.592.09.03.18.045.27.06.015 0 .038 0 .083-.015-.045-.068-.075-.127-.12-.172-1.29-1.47-2.7-2.82-4.17-4.11-.645-.563-1.44-.646-2.243-.66-.757-.015-1.515.014-2.272 0-1.328-.023-2.543-.458-3.698-1.073-.337-.18-.66-.375-.99-.563-.195-.105-.195-.217-.022-.352a11.068 11.068 0 0 1 4.29-2.242c.45-.12.907-.053 1.342.097 1.41.495 2.775 1.08 4.005 1.942.195.143.33.128.51-.022a4.82 4.82 0 0 1 2.19-1.08c.12-.023.248-.023.443-.038-.068.128-.083.21-.135.263a3.275 3.275 0 0 0-.893 2.018c-.03.412.09.742.405 1.057a221.372 221.372 0 0 1 3.953 4.013c.202.21.367.27.645.142 1.027-.465 2.13-.6 3.24-.652 1.35-.068 2.685 0 3.982.405.263.082.518.195.818.255-.068-.09-.12-.188-.195-.263-.975-1.08-2.085-1.995-3.225-2.887-.675-.533-1.245-1.14-1.673-1.905-.337-.6-.795-1.133-1.207-1.695a4.639 4.639 0 0 1-.173-.233c.015-.023.023-.045.038-.068.097.023.202.038.292.075.788.338 1.53.743 2.19 1.29.203.173.353.18.533-.03.442-.524 1.035-.825 1.672-1.05.21-.075.383-.015.525.143.518.547.848 1.192.953 1.935.022.143-.053.33-.143.442-.142.18-.337.316-.51.465-.135.113-.18.24-.045.375.743.788 1.485 1.576 2.235 2.355.008.008.038 0 .113.015l.255-1.724c.09.067.135.082.157.112 1.868 2.693 3.525 5.498 4.695 8.565 1.028 2.678 1.703 5.438 1.913 8.295.255 3.428-.105 6.803-1.02 10.11-.195.713-.42 1.418-.63 2.13-.03.112-.083.218-.15.367-.098-.082-.165-.134-.225-.202l-2.205-2.385c-.053-.06-.15-.083-.225-.128-.03.06-.075.128-.075.195a25.598 25.598 0 0 1-1.553 6.51c-1.755 4.59-4.725 8.235-8.64 11.146-.442.33-.907.645-1.365.96-.27.187-.33.157-.412-.15-.308-1.17-.615-2.34-.923-3.518-.09-.337-.12-.345-.397-.157-3.285 2.242-6.915 3.615-10.83 4.26-.608.097-1.23.135-1.853.15-1.32.022-2.647 0-3.975.022-1.65.037-3.232-.345-4.792-.81a19.845 19.845 0 0 1-3.51-1.44c-.428-.218-.458-.293-.36-.765.487-2.355.9-4.725 1.072-7.125.225-3.097-.037-6.157-.847-9.157-.068-.256-.128-.518-.203-.78-.037-.12-.09-.233-.165-.413l-.3.428c-1.845 2.73-3.877 5.31-6.255 7.597-.825.795-1.717 1.523-2.587 2.273-.218.187-.308.157-.48-.15-.638-1.148-1.088-2.363-1.425-3.63-.66-2.46-.99-4.965-1.08-7.508-.075-2.077-.03-4.147.195-6.21.067-.638.24-1.268.36-1.905.015-.083 0-.18 0-.263-.083 0-.18-.007-.255.016-1.658.502-3.308 1.005-4.965 1.5-.098.03-.195.044-.375.082.06-.608.075-1.17.172-1.718a32.735 32.735 0 0 1 5.123-12.48c.39-.57.847-1.095 1.275-1.642.052-.067.075-.157.112-.232-.082-.03-.157-.068-.24-.083-.96-.15-1.92-.293-2.88-.435-.24-.037-.247-.15-.15-.345a32.54 32.54 0 0 1 5.16-7.297c1.358-1.448 2.85-2.753 4.433-3.953.112-.082.232-.15.382-.21-.585 1.575-.78 3.172-.337 4.8.45 1.65 1.327 2.962 2.865 3.765.022-.015.052-.03.075-.045-.075-.165-.143-.322-.218-.488-.555-1.177-.93-2.392-.952-3.704-.015-.953.09-1.883.525-2.753.697-1.387 2.227-2.19 3.78-2.01a6.668 6.668 0 0 1 2.917 1.065c.053.038.113.068.165.098.023.007.053 0 .128 0-.405-.916-.938-1.71-1.68-2.355-.75-.646-1.628-.998-2.67-1.163.15-.105.225-.18.322-.218 3.323-1.552 6.795-2.61 10.448-3.052 2.325-.285 4.65-.33 6.982-.135.21.015.443.09.623.195 1.657.938 3.03 2.213 4.282 3.623.053.06.135.104.203.15.015-.083.06-.165.052-.248a8.21 8.21 0 0 0-.705-2.835c-.022-.045-.03-.098-.067-.21l.052-.015Zm7.395 25.717v-1.83c0-.225-.082-.36-.3-.434-1.2-.428-2.31-1.043-3.337-1.785-.308-.218-.578-.278-.945-.18-3.195.794-5.888 2.534-8.483 4.462-.157.113-.157.248-.067.413 1.102 2.017 2.197 4.042 3.307 6.06.068.127.263.247.413.262.33.03.667.008.99-.038 1.155-.157 2.19-.652 3.21-1.184 1.815-.96 3.435-2.213 5.025-3.503.105-.09.172-.285.172-.435.023-.6.008-1.2.008-1.808h.007Zm-.585 11.745c.045.113.075.166.098.226.03.075.052.157.075.24.262 1.29.487 2.58.412 3.9 0 .075.045.15.068.224.075-.022.165-.03.217-.082.533-.48 1.103-.938 1.583-1.47 1.215-1.365 1.86-3.023 2.287-4.778a.89.89 0 0 0-.015-.464 8.845 8.845 0 0 0-1.5-2.888.665.665 0 0 0-.577-.263c-.84.023-1.68.03-2.52.075-.21.008-.435.09-.608.21-.87.6-1.71 1.238-2.587 1.823-1.215.81-2.49 1.5-3.968 1.703-.217.03-.232.15-.142.314l1.957 3.578c.09.157.21.218.39.165 1.68-.48 3.255-1.155 4.583-2.325.067-.06.142-.113.24-.195l.007.008Zm6.3-5.355c.075-.112.158-.187.188-.277.217-.6.487-1.185.63-1.8.652-2.827.142-5.542-.885-8.197-.083-.218-.195-.218-.375-.09-.84.592-1.688 1.162-2.528 1.762a.605.605 0 0 0-.24.398c-.022.614 0 1.237 0 1.852 0 .443.053.892 0 1.328-.067.577.135 1.012.533 1.417 1.012 1.02 1.935 2.115 2.542 3.435.023.045.06.083.12.165l.015.008Z"/><path d="M17.933 9.833c-.39-2.415-.788-4.83-1.193-7.328.135.053.21.068.27.105 2.483 1.68 4.973 3.353 7.455 5.033.353.24.383.225.525-.18.833-2.4 1.673-4.8 2.505-7.2.023-.075.053-.15.105-.278.083.12.135.203.188.285l4.072 6.39c.24.383.3.383.608.053 1.987-2.13 3.975-4.268 5.962-6.398.03-.037.053-.075.09-.105.053-.045.113-.075.173-.112.03.067.082.142.09.21l.495 6.945c0 .075.022.142.052.285 1.425-1.823 2.993-3.413 4.845-4.815-.052.18-.075.307-.127.42-.803 1.672-1.223 3.465-1.545 5.28-.15.84-.263 1.68-.368 2.527-.03.263-.135.285-.36.24-1.305-.27-2.602-.585-3.915-.78a35.398 35.398 0 0 0-3.675-.337c-5.917-.24-11.52 1.012-16.815 3.645-.292.142-.577.3-.862.45-.323.172-.353.15-.495-.195-.518-1.268-1.005-2.543-1.568-3.788a17.141 17.141 0 0 0-2.182-3.6c-.038-.045-.03-.127-.038-.187.06.007.12 0 .173.022 1.89.908 3.667 2.003 5.302 3.33a.87.87 0 0 0 .165.098c.023-.015.053-.023.075-.038l-.007.023Z"/></g><defs><clipPath id="clip0_353_2169"><path fill="#fff" d="M0 0h60.51v75H0z"/></clipPath></defs></svg>