<svg width="13" height="15" fill="none" xmlns="http://www.w3.org/2000/svg"><g clip-path="url('#clip0_363_3890')" fill="#FF015D"><path d="M8.024 2.565c.027.001.043 0 .058.004.473.125.933.278 1.349.54.175.11.336.242.499.368.03.022.054.069.059.106.046.389.191.743.349 1.095.01.023.018.047.027.07l-.012.007a6.745 6.745 0 0 0-1.531-1.108c-.057-.03-.117-.055-.176-.083-.04-.02-.055-.005-.064.036-.024.115-.047.232-.077.346-.013.056-.04.108-.064.16-.036.073-.044.073-.111.03-.203-.134-.404-.269-.61-.397-.163-.1-.335-.186-.502-.285-.121-.073-.246-.07-.38-.045-.485.092-.949.239-1.375.494-.123.073-.24.16-.358.243-.05.034-.048.051-.002.088l.194.158c.046.039.045.054-.011.073-.351.122-.633.341-.88.61-.011.013-.015.032-.021.047.015.005.028.012.043.015l.411.063c.035.005.053.02.057.056.063.534.408.823.876 1.002.185.07.38.084.573.084.285-.002.57-.014.855-.017.296-.003.588.029.872.119a.349.349 0 0 0 .054.012c.003 0 .007 0 .016-.003-.009-.014-.015-.026-.024-.035a8.988 8.988 0 0 0-.834-.822c-.129-.112-.288-.129-.448-.132-.152-.003-.303.003-.455 0a1.624 1.624 0 0 1-.74-.214c-.067-.036-.131-.075-.197-.113-.04-.02-.04-.043-.005-.07.254-.213.54-.363.858-.449a.457.457 0 0 1 .269.02c.282.099.555.216.8.388.04.029.067.026.103-.004a.964.964 0 0 1 .438-.216c.024-.005.049-.005.088-.008-.013.026-.016.042-.027.053a.655.655 0 0 0-.178.403.253.253 0 0 0 .08.212c.269.264.53.532.791.802.04.042.074.054.129.029.206-.093.426-.12.648-.13.27-.014.537 0 .796.08.053.017.104.04.164.051-.014-.018-.024-.037-.039-.052a5.01 5.01 0 0 0-.645-.578 1.275 1.275 0 0 1-.334-.38c-.068-.12-.16-.227-.242-.34a.928.928 0 0 1-.034-.046l.007-.014c.02.005.04.008.059.015.157.068.306.149.438.258.04.035.07.036.106-.006a.74.74 0 0 1 .335-.21c.042-.015.076-.003.104.029.104.11.17.238.191.387a.128.128 0 0 1-.028.088c-.029.036-.068.063-.103.093-.026.023-.035.048-.008.075.148.158.296.315.447.471.001.002.007 0 .022.003l.051-.345c.018.014.027.017.032.023.373.538.704 1.1.938 1.713.206.535.341 1.087.383 1.659a5.897 5.897 0 0 1-.204 2.022c-.039.142-.084.283-.126.426-.006.022-.016.043-.03.073-.02-.016-.033-.027-.045-.04l-.441-.477c-.01-.012-.03-.017-.045-.026-.006.012-.015.026-.015.04a5.12 5.12 0 0 1-.31 1.301c-.351.918-.945 1.647-1.728 2.23-.089.065-.182.128-.273.191-.054.038-.066.032-.083-.03l-.184-.703c-.018-.068-.024-.07-.08-.032a5.322 5.322 0 0 1-2.166.852c-.121.02-.246.027-.37.03-.264.005-.53 0-.795.005-.33.007-.647-.07-.959-.162a3.969 3.969 0 0 1-.702-.288c-.085-.044-.091-.059-.072-.153.098-.471.18-.945.215-1.425a5.463 5.463 0 0 0-.17-1.832c-.013-.05-.025-.103-.04-.156-.008-.024-.018-.046-.033-.082l-.06.085a9.351 9.351 0 0 1-1.251 1.52c-.165.159-.344.304-.518.454-.043.038-.061.032-.096-.03a3.15 3.15 0 0 1-.285-.726 6.68 6.68 0 0 1-.216-1.501 8.58 8.58 0 0 1 .039-1.242c.014-.128.048-.254.072-.381.003-.017 0-.036 0-.053-.016 0-.036-.001-.051.003-.331.1-.661.201-.993.3-.02.006-.039.01-.075.017.012-.122.015-.234.035-.344a6.547 6.547 0 0 1 1.024-2.496c.078-.114.17-.219.255-.328.01-.014.015-.032.023-.047-.017-.006-.032-.013-.048-.016L.7 6.033c-.048-.008-.05-.03-.03-.07a6.508 6.508 0 0 1 1.918-2.249.337.337 0 0 1 .077-.042c-.117.315-.156.634-.068.96.09.33.266.592.573.753l.015-.01-.043-.097a1.797 1.797 0 0 1-.191-.74c-.003-.191.018-.377.105-.551a.751.751 0 0 1 .756-.402c.212.025.407.096.584.213l.033.02h.025a1.309 1.309 0 0 0-.336-.472c-.15-.129-.325-.2-.534-.232.03-.021.045-.036.065-.044a6.864 6.864 0 0 1 2.089-.61c.465-.057.93-.066 1.397-.027a.303.303 0 0 1 .124.039c.332.187.606.442.857.724.01.012.027.021.04.03.003-.016.012-.033.01-.049a1.642 1.642 0 0 0-.14-.567c-.005-.009-.006-.02-.014-.042l.01-.003Zm1.479 5.143v-.366c0-.045-.017-.072-.06-.087a2.673 2.673 0 0 1-.668-.357.204.204 0 0 0-.189-.036c-.639.16-1.177.507-1.696.893-.032.022-.032.05-.014.082.22.404.44.809.662 1.212a.12.12 0 0 0 .082.053.873.873 0 0 0 .198-.008c.231-.031.438-.13.642-.237.363-.192.687-.442 1.005-.7.021-.018.035-.057.035-.087.004-.12.001-.24.001-.362h.002Zm-.117 2.35c.009.022.015.032.019.044.006.015.01.032.015.048.053.258.098.516.083.78 0 .015.009.03.013.045.015-.004.033-.006.044-.016.106-.096.22-.188.316-.294.243-.273.372-.605.458-.956a.178.178 0 0 0-.003-.093 1.769 1.769 0 0 0-.3-.577.133.133 0 0 0-.116-.053c-.168.005-.336.006-.504.015a.237.237 0 0 0-.121.042c-.174.12-.342.248-.518.365-.243.162-.498.3-.793.34-.044.006-.047.03-.029.063l.392.716c.018.031.042.043.078.033.336-.096.65-.231.916-.465l.048-.04.002.002Zm1.26-1.072c.014-.022.031-.037.037-.055.043-.12.098-.237.126-.36.13-.566.029-1.109-.177-1.64-.016-.043-.039-.043-.075-.018-.168.119-.338.233-.505.353a.121.121 0 0 0-.048.08c-.005.122 0 .247 0 .37 0 .088.01.178 0 .265a.327.327 0 0 0 .106.284c.203.204.387.423.508.687.005.009.012.016.024.033l.004.001Z"/><path d="M3.586 1.967 3.348.5c.027.01.042.014.054.021.496.336.994.67 1.49 1.007.071.048.077.045.106-.036l.5-1.44a.605.605 0 0 1 .022-.056l.037.057.815 1.278c.048.077.06.077.121.01C6.891.918 7.288.49 7.686.064c.006-.007.01-.015.018-.02.01-.01.022-.016.034-.023.006.013.017.028.018.042l.1 1.389c0 .015.004.028.01.057.285-.365.598-.683.969-.963-.01.036-.015.061-.026.084-.16.334-.244.693-.309 1.056-.03.168-.052.336-.073.505-.006.053-.027.057-.072.048-.261-.054-.52-.117-.783-.156a7.08 7.08 0 0 0-.735-.067 6.825 6.825 0 0 0-3.363.729c-.059.028-.116.06-.173.09-.064.034-.07.03-.099-.04-.103-.253-.2-.508-.313-.757a3.428 3.428 0 0 0-.437-.72c-.007-.009-.006-.025-.007-.037.012.001.024 0 .034.004.378.182.734.4 1.061.666.009.008.021.014.033.02l.015-.008-.002.005Z"/></g><defs><clipPath id="clip0_363_3890"><path fill="#fff" d="M0 0h12.102v15H0z"/></clipPath></defs></svg>