<svg width="10" height="10" fill="none" xmlns="http://www.w3.org/2000/svg"><g clip-path="url('#clip0_408_354')"><path d="M4.733 3.13 2.983 4.4a.263.263 0 0 0-.095.292l.666 2.054c.034.108.134.179.246.179h2.163c.112 0 .212-.07.245-.18l.667-2.053a.257.257 0 0 0-.096-.292L5.03 3.13a.256.256 0 0 0-.304 0h.008Z" fill="url('#paint0_linear_408_354')"/><path fill-rule="evenodd" clip-rule="evenodd" d="M10 5c0-2.763-2.237-5-5-5S0 2.237 0 5s2.237 5 5 5 5-2.237 5-5ZM2.375 7.417c-.242.008-.488.012-.73.02-.032-.004-.674-.095-.937-.683-.225-.504.005-.97.038-1.029l1.308-1.52-.458-1.78c0-.033-.058-.68.458-1.067.442-.333.946-.208 1.009-.191l1.858.983 1.691-.933c.034-.013.642-.225 1.15.179.434.346.438.862.438.929-.054.28-.104.558-.154.837-.054.28-.104.559-.158.838.283.283.566.567.85.846l.425.425c.02.029.395.554.15 1.154-.213.513-.709.663-.771.68-.296.028-.588.057-.884.087-.325.033-.65.062-.979.095L5.95 9.005c-.017.03-.367.575-1.013.571-.554-.004-.879-.408-.92-.462-.225-.425-.455-.846-.68-1.271L3.1 7.4c-.242.008-.483.012-.725.02v-.003Z" fill="url('#paint1_linear_408_354')"/></g><defs><linearGradient id="paint0_linear_408_354" x1="2.8" y1="5.002" x2="7.039" y2="5.002" gradientUnits="userSpaceOnUse"><stop stop-color="#067BFF"/><stop offset="1" stop-color="#01A3BD"/></linearGradient><linearGradient id="paint1_linear_408_354" x1="-.189" y1="5" x2="10.377" y2="5" gradientUnits="userSpaceOnUse"><stop stop-color="#067BFF"/><stop offset="1" stop-color="#01A3BD"/></linearGradient><clipPath id="clip0_408_354"><path fill="#fff" transform="matrix(-1 0 0 1 10 0)" d="M0 0h10v10H0z"/></clipPath></defs></svg>