<svg width="15" height="15" fill="none" xmlns="http://www.w3.org/2000/svg"><g clip-path="url('#clip0_449_33')" fill="#fff"><path d="M7.1 4.694 4.475 6.6a.395.395 0 0 0-.144.437l1 3.082c.05.162.2.268.37.268h3.243a.383.383 0 0 0 .369-.268l1-3.082a.385.385 0 0 0-.144-.437L7.544 4.694a.384.384 0 0 0-.456 0H7.1Z"/><path fill-rule="evenodd" clip-rule="evenodd" d="M15 7.5C15 3.356 11.644 0 7.5 0A7.498 7.498 0 0 0 0 7.5C0 11.644 3.356 15 7.5 15S15 11.644 15 7.5ZM3.562 11.125c-.362.012-.73.019-1.093.031-.05-.006-1.013-.144-1.406-1.025-.338-.756.006-1.456.056-1.543L3.08 6.306l-.687-2.668c0-.05-.088-1.02.687-1.6.663-.5 1.419-.313 1.513-.288L7.38 3.225l2.538-1.4c.05-.019.962-.337 1.725.269.65.518.656 1.294.656 1.393a89.2 89.2 0 0 0-.231 1.257c-.082.418-.157.837-.238 1.256.425.425.85.85 1.275 1.269l.638.637c.031.044.594.832.225 1.731-.319.77-1.063.994-1.156 1.02l-1.325.13c-.488.05-.976.094-1.47.144l-1.093 2.575c-.025.044-.55.863-1.519.857-.831-.007-1.318-.613-1.381-.694-.338-.638-.681-1.269-1.019-1.907-.119-.218-.237-.443-.356-.662-.363.013-.725.019-1.088.031v-.006Z"/></g><defs><clipPath id="clip0_449_33"><path fill="#fff" transform="matrix(-1 0 0 1 15 0)" d="M0 0h15v15H0z"/></clipPath></defs></svg>