<svg width="10" height="10" fill="none" xmlns="http://www.w3.org/2000/svg"><g clip-path="url('#clip0_406_185')"><path d="m5.267 3.13 1.75 1.27c.091.067.129.183.095.292l-.666 2.054a.255.255 0 0 1-.246.179H4.037a.255.255 0 0 1-.245-.18l-.667-2.053a.257.257 0 0 1 .096-.292l1.75-1.27a.256.256 0 0 1 .304 0h-.008Z" fill="url('#paint0_linear_406_185')"/><path fill-rule="evenodd" clip-rule="evenodd" d="M0 5c0-2.763 2.237-5 5-5s5 2.237 5 5-2.237 5-5 5-5-2.237-5-5Zm7.625 2.417c.242.008.488.012.73.02.032-.004.674-.095.937-.683.225-.504-.005-.97-.038-1.029l-1.308-1.52.458-1.78c0-.033.059-.68-.458-1.067-.442-.333-.946-.208-1.008-.191l-1.859.983-1.691-.933c-.034-.013-.642-.225-1.15.179-.434.346-.438.862-.438.929.054.28.104.558.154.837.054.28.104.559.158.838-.283.283-.566.567-.85.846l-.424.425c-.021.029-.396.554-.15 1.154.212.513.708.663.77.68.296.028.588.057.884.087.325.033.65.062.979.095l.729 1.717c.017.03.367.575 1.013.571.554-.004.879-.408.92-.462.225-.425.455-.846.68-1.271L6.9 7.4c.242.008.483.012.725.02v-.003Z" fill="url('#paint1_linear_406_185')"/></g><defs><linearGradient id="paint0_linear_406_185" x1="7.2" y1="5.002" x2="2.961" y2="5.002" gradientUnits="userSpaceOnUse"><stop stop-color="#067BFF"/><stop offset="1" stop-color="#01A3BD"/></linearGradient><linearGradient id="paint1_linear_406_185" x1="10.189" y1="5" x2="-.377" y2="5" gradientUnits="userSpaceOnUse"><stop stop-color="#067BFF"/><stop offset="1" stop-color="#01A3BD"/></linearGradient><clipPath id="clip0_406_185"><path fill="#fff" d="M0 0h10v10H0z"/></clipPath></defs></svg>