<svg width="18" height="20" fill="none" xmlns="http://www.w3.org/2000/svg"><path d="M11.698 3.42c.036.002.058 0 .078.006.63.166 1.244.37 1.798.72.234.146.448.322.666.49a.23.23 0 0 1 .078.142c.062.518.256.99.466 1.46.014.03.024.062.036.092l-.016.01-.122-.114a8.994 8.994 0 0 0-1.92-1.364c-.076-.04-.156-.072-.234-.11-.054-.026-.074-.006-.086.048-.032.154-.062.31-.102.462-.018.074-.054.144-.086.212-.048.098-.058.098-.148.04-.27-.178-.538-.358-.812-.528-.218-.134-.448-.248-.67-.38-.162-.098-.328-.094-.506-.06-.648.122-1.266.318-1.834.658-.164.098-.32.214-.478.324-.066.046-.064.068-.002.118l.258.21c.062.052.06.072-.014.098-.468.162-.844.454-1.174.814-.014.016-.02.042-.028.062.02.006.038.016.058.02l.548.084c.046.006.07.026.076.074.084.712.544 1.098 1.168 1.336.246.094.506.112.764.112.38-.002.76-.018 1.14-.022a3.69 3.69 0 0 1 1.162.158c.024.008.048.012.072.016.004 0 .01 0 .022-.004-.012-.018-.02-.034-.032-.046-.344-.392-.72-.752-1.112-1.096-.172-.15-.384-.172-.598-.176-.202-.004-.404.004-.606 0-.354-.006-.678-.122-.986-.286-.09-.048-.176-.1-.264-.15-.052-.028-.052-.058-.006-.094.338-.284.72-.484 1.144-.598a.61.61 0 0 1 .358.026c.376.132.74.288 1.068.518.052.038.088.034.136-.006.17-.146.364-.242.584-.288.032-.006.066-.006.118-.01-.018.034-.022.056-.036.07a.873.873 0 0 0-.238.538.337.337 0 0 0 .108.282c.358.352.706.71 1.054 1.07.054.056.098.072.172.038.274-.124.568-.16.864-.174.36-.018.716 0 1.062.108.07.022.138.052.218.068-.018-.024-.032-.05-.052-.07a6.682 6.682 0 0 0-.86-.77 1.7 1.7 0 0 1-.446-.508c-.09-.16-.212-.302-.322-.452a1.237 1.237 0 0 1-.046-.062l.01-.018c.026.006.054.01.078.02.21.09.408.198.584.344.054.046.094.048.142-.008a.987.987 0 0 1 .446-.28c.056-.02.102-.004.14.038a.93.93 0 0 1 .254.516.171.171 0 0 1-.038.118c-.038.048-.09.084-.136.124-.036.03-.048.064-.012.1.198.21.396.42.596.628.002.002.01 0 .03.004l.068-.46c.024.018.036.022.042.03.498.718.94 1.466 1.252 2.284.274.714.454 1.45.51 2.212a7.862 7.862 0 0 1-.272 2.696c-.052.19-.112.378-.168.568-.008.03-.022.058-.04.098-.026-.022-.044-.036-.06-.054l-.588-.636c-.014-.016-.04-.022-.06-.034-.008.016-.02.034-.02.052a6.826 6.826 0 0 1-.414 1.736c-.468 1.224-1.26 2.196-2.304 2.972-.118.088-.242.172-.364.256-.072.05-.088.042-.11-.04l-.246-.938c-.024-.09-.032-.092-.106-.042a7.096 7.096 0 0 1-2.888 1.136 3.684 3.684 0 0 1-.494.04c-.352.006-.706 0-1.06.006-.44.01-.862-.092-1.278-.216a5.292 5.292 0 0 1-.936-.384c-.114-.058-.122-.078-.096-.204.13-.628.24-1.26.286-1.9a7.284 7.284 0 0 0-.226-2.442c-.018-.068-.034-.138-.054-.208-.01-.032-.024-.062-.044-.11l-.08.114c-.492.728-1.034 1.416-1.668 2.026-.22.212-.458.406-.69.606-.058.05-.082.042-.128-.04a4.2 4.2 0 0 1-.38-.968 8.908 8.908 0 0 1-.288-2.002 11.44 11.44 0 0 1 .052-1.656c.018-.17.064-.338.096-.508.004-.022 0-.048 0-.07-.022 0-.048-.002-.068.004-.442.134-.882.268-1.324.4-.026.008-.052.012-.1.022.016-.162.02-.312.046-.458a8.73 8.73 0 0 1 1.366-3.328c.104-.152.226-.292.34-.438.014-.018.02-.042.03-.062-.022-.008-.042-.018-.064-.022-.256-.04-.512-.078-.768-.116-.064-.01-.066-.04-.04-.092A8.678 8.678 0 0 1 3.27 6.006a9.39 9.39 0 0 1 1.182-1.054.45.45 0 0 1 .102-.056c-.156.42-.208.846-.09 1.28.12.44.354.79.764 1.004l.02-.012-.058-.13a2.395 2.395 0 0 1-.254-.988c-.004-.254.024-.502.14-.734.186-.37.594-.584 1.008-.536.282.034.542.128.778.284.014.01.03.018.044.026.006.002.014 0 .034 0a1.745 1.745 0 0 0-.448-.628 1.381 1.381 0 0 0-.712-.31c.04-.028.06-.048.086-.058a9.152 9.152 0 0 1 2.786-.814 9.055 9.055 0 0 1 1.862-.036.404.404 0 0 1 .166.052c.442.25.808.59 1.142.966.014.016.036.028.054.04.004-.022.016-.044.014-.066a2.19 2.19 0 0 0-.188-.756c-.006-.012-.008-.026-.018-.056l.014-.004Zm1.972 6.858V9.79c0-.06-.022-.096-.08-.116a3.564 3.564 0 0 1-.89-.476.273.273 0 0 0-.252-.048c-.852.212-1.57.676-2.262 1.19-.042.03-.042.066-.018.11.294.538.586 1.078.882 1.616a.16.16 0 0 0 .11.07c.088.008.178.002.264-.01.308-.042.584-.174.856-.316.484-.256.916-.59 1.34-.934.028-.024.046-.076.046-.116.006-.16.002-.32.002-.482h.002Zm-.156 3.132.026.06c.008.02.014.042.02.064.07.344.13.688.11 1.04 0 .02.012.04.018.06.02-.006.044-.008.058-.022.142-.128.294-.25.422-.392.324-.364.496-.806.61-1.274a.237.237 0 0 0-.004-.124 2.359 2.359 0 0 0-.4-.77.177.177 0 0 0-.154-.07c-.224.006-.448.008-.672.02a.316.316 0 0 0-.162.056c-.232.16-.456.33-.69.486-.324.216-.664.4-1.058.454-.058.008-.062.04-.038.084l.522.954c.024.042.056.058.104.044.448-.128.868-.308 1.222-.62.018-.016.038-.03.064-.052l.002.002Zm1.68-1.428c.02-.03.042-.05.05-.074.058-.16.13-.316.168-.48.174-.754.038-1.478-.236-2.186-.022-.058-.052-.058-.1-.024-.224.158-.45.31-.674.47a.161.161 0 0 0-.064.106c-.006.164 0 .33 0 .494 0 .118.014.238 0 .354a.436.436 0 0 0 .142.378c.27.272.516.564.678.916.006.012.016.022.032.044l.004.002Z" fill="#FF015D"/><path d="M5.782 2.622 5.464.668c.036.014.056.018.072.028l1.988 1.342c.094.064.102.06.14-.048L8.332.07a.807.807 0 0 1 .028-.074l.05.076 1.086 1.704c.064.102.08.102.162.014l1.59-1.706c.008-.01.014-.02.024-.028.014-.012.03-.02.046-.03.008.018.022.038.024.056l.132 1.852c0 .02.006.038.014.076A6.95 6.95 0 0 1 12.78.726c-.014.048-.02.082-.034.112-.214.446-.326.924-.412 1.408-.04.224-.07.448-.098.674-.008.07-.036.076-.096.064-.348-.072-.694-.156-1.044-.208a9.44 9.44 0 0 0-.98-.09 9.1 9.1 0 0 0-4.484.972c-.078.038-.154.08-.23.12-.086.046-.094.04-.132-.052-.138-.338-.268-.678-.418-1.01a4.57 4.57 0 0 0-.582-.96c-.01-.012-.008-.034-.01-.05.016.002.032 0 .046.006.504.242.978.534 1.414.888.012.01.028.018.044.026l.02-.01-.002.006Z" fill="#FF015D"/></svg>