<svg width="17" height="17" fill="none" xmlns="http://www.w3.org/2000/svg"><path d="m1 16 4.219-4.219" stroke="url('#paint0_linear_10_168')" stroke-width="2" stroke-linecap="round"/><path d="M9.948 1.91c.653-.436.98-.654 1.336-.618.355.035.633.312 1.188.867l2.369 2.37c.555.554.832.832.867 1.187.036.356-.182.683-.617 1.336L13.6 9.285c-.471.708-.707 1.062-.903 1.436a7.994 7.994 0 0 0-.55 1.327c-.126.402-.209.82-.376 1.654l-.179.895a.94.94 0 0 1-1.457.589 32.897 32.897 0 0 1-8.322-8.322.94.94 0 0 1 .589-1.457l.895-.18c.834-.166 1.252-.25 1.654-.375a8 8 0 0 0 1.327-.55c.374-.196.728-.432 1.436-.904L9.948 1.91Z" fill="url('#paint1_linear_10_168')" stroke="url('#paint2_linear_10_168')" stroke-width="2"/><defs><linearGradient id="paint0_linear_10_168" x1="3.83" y1="14.611" x2="3.083" y2="13.864" gradientUnits="userSpaceOnUse"><stop stop-color="#067BFF"/><stop offset="1" stop-color="#01A3BD"/></linearGradient><linearGradient id="paint1_linear_10_168" x1="16.283" y1="8.5" x2=".434" y2="8.5" gradientUnits="userSpaceOnUse"><stop stop-color="#067BFF"/><stop offset="1" stop-color="#01A3BD"/></linearGradient><linearGradient id="paint2_linear_10_168" x1="16.283" y1="8.5" x2=".434" y2="8.5" gradientUnits="userSpaceOnUse"><stop stop-color="#067BFF"/><stop offset="1" stop-color="#01A3BD"/></linearGradient></defs></svg>